<svg id="Layer_1_1_" enable-background="new 0 0 64 64" height="512" viewBox="0 0 64 64" width="512" xmlns="http://www.w3.org/2000/svg"><path d="m56 2h-48c-.552 0-1 .448-1 1v52c0 .552.448 1 1 1h1.153l.861 5.165c.08.481.497.835.986.835h4c.489 0 .906-.354.986-.835l.861-5.165h30.306l.861 5.165c.08.481.497.835.986.835h4c.489 0 .906-.354.986-.835l.861-5.165h1.153c.552 0 1-.448 1-1v-52c0-.552-.448-1-1-1zm-41.847 58h-2.306l-.667-4h3.639zm38 0h-2.306l-.667-4h3.639zm2.847-6h-46v-50h46z"/><path d="m12 36h40c.552 0 1-.448 1-1v-12c0-.552-.448-1-1-1h-40c-.552 0-1 .448-1 1v12c0 .552.448 1 1 1zm1-12h38v10h-38z"/><path d="m12 52h40c.552 0 1-.448 1-1v-12c0-.552-.448-1-1-1h-40c-.552 0-1 .448-1 1v12c0 .552.448 1 1 1zm1-12h38v10h-38z"/><path d="m12 20h40c.552 0 1-.448 1-1v-12c0-.552-.448-1-1-1h-40c-.552 0-1 .448-1 1v12c0 .552.448 1 1 1zm1-12h38v10h-38z"/><path d="m27 26h10v2h-10z"/><path d="m27 10h10v2h-10z"/><path d="m27 42h10v2h-10z"/></svg>