<?xml version="1.0" encoding="iso-8859-1"?>
<!-- Generator: Adobe Illustrator 19.0.0, SVG Export Plug-In . SVG Version: 6.00 Build 0)  -->
<svg version="1.1" id="Capa_1" xmlns="http://www.w3.org/2000/svg" xmlns:xlink="http://www.w3.org/1999/xlink" x="0px" y="0px"
	 viewBox="0 0 511.998 511.998" style="enable-background:new 0 0 511.998 511.998;" xml:space="preserve">
<g>
  <path d="M501.99,438.517h-96.954V248.623c0.801-0.76,1.596-1.53,2.381-2.315l11.543-11.552c0.004-0.004,0.008-0.01,0.012-0.014
    l49.878-49.867c0-0.001,0-0.001,0-0.002c0.234-0.233,0.455-0.479,0.666-0.734c0.082-0.1,0.152-0.206,0.23-0.309
    c0.119-0.159,0.242-0.315,0.353-0.481c0.08-0.122,0.15-0.249,0.227-0.375c0.094-0.154,0.191-0.308,0.277-0.468
    c0.066-0.123,0.121-0.25,0.182-0.375c0.082-0.171,0.166-0.34,0.238-0.516c0.047-0.113,0.084-0.23,0.125-0.344
    c0.072-0.193,0.145-0.385,0.205-0.584c0.029-0.1,0.051-0.202,0.078-0.303c0.057-0.214,0.115-0.428,0.158-0.648
    c0.018-0.092,0.027-0.186,0.043-0.279c0.037-0.228,0.076-0.456,0.1-0.689c0.006-0.065,0.004-0.133,0.01-0.198
    c0.02-0.255,0.039-0.509,0.039-0.768c0-0.275-0.02-0.544-0.041-0.813c-0.004-0.049-0.004-0.099-0.008-0.148
    c-0.025-0.256-0.066-0.507-0.109-0.757c-0.012-0.069-0.018-0.139-0.031-0.208c-0.049-0.247-0.111-0.487-0.178-0.728
    c-0.02-0.073-0.035-0.146-0.057-0.219c-0.07-0.232-0.152-0.457-0.238-0.681c-0.031-0.081-0.057-0.163-0.088-0.243
    c-0.09-0.218-0.193-0.429-0.297-0.639c-0.041-0.082-0.076-0.167-0.121-0.249c-0.115-0.217-0.242-0.426-0.373-0.634
    c-0.043-0.068-0.082-0.14-0.127-0.207c-0.172-0.259-0.355-0.509-0.551-0.75c-0.01-0.012-0.018-0.025-0.029-0.038
    c-0.43-0.527-0.912-1.01-1.438-1.439c-0.018-0.015-0.037-0.026-0.055-0.041c-0.236-0.19-0.48-0.371-0.734-0.539
    c-0.072-0.049-0.149-0.09-0.225-0.137c-0.201-0.126-0.404-0.251-0.615-0.363c-0.088-0.048-0.18-0.086-0.27-0.13
    c-0.203-0.101-0.406-0.2-0.617-0.287c-0.088-0.036-0.176-0.064-0.266-0.097c-0.217-0.082-0.434-0.163-0.658-0.23
    c-0.08-0.025-0.162-0.041-0.244-0.064c-0.232-0.063-0.465-0.124-0.703-0.171c-0.08-0.016-0.16-0.023-0.24-0.037
    c-0.24-0.041-0.479-0.081-0.725-0.105c-0.074-0.007-0.149-0.006-0.223-0.012c-0.246-0.018-0.49-0.037-0.74-0.037h-53.573
    l17.553-17.552l64.987,0.005c3.824,0,7.313-2.18,8.988-5.615c12.691-26.02,15.648-55.742,8.328-83.694
    c-0.908-3.465-3.602-6.181-7.059-7.117c-3.461-0.939-7.154,0.048-9.688,2.58l-47.702,47.702V66.12
    c0-3.24-1.568-6.279-4.211-8.154c-2.643-1.876-6.029-2.356-9.088-1.286c-8.957,3.13-17.402,7.244-25.281,12.287v-5.49
    c0-34.999-28.477-63.474-63.476-63.474H63.476C28.477,0.002,0,28.478,0,63.48c0,5.523,4.478,10,10,10h96.952v375.039
    c0,35.001,28.477,63.477,63.477,63.477h278.086c35.001,0,63.475-28.477,63.475-63.478
    C511.99,442.994,507.514,438.517,501.99,438.517z M491.74,84.272c1.127,15.628-1.398,31.388-7.449,45.982l-38.532-0.004
    L491.74,84.272z M21.16,53.48c4.53-19.17,21.783-33.478,42.316-33.478c20.531,0,37.772,14.311,42.302,33.478H21.16z
      M437.636,187.801l-29.889,29.885h-49.421l18.213-18.214c0.018-0.018,0.035-0.034,0.051-0.051l11.621-11.62H437.636z
      M338.329,237.685h48.989c-18.398,15.754-41.489,24.342-65.847,24.343c-2.414,0-4.824-0.089-7.227-0.261L338.329,237.685z
      M300.11,247.615c-2.035-28.943,8.555-57.998,29.535-78.979l29.852-29.851v49.445l-32.379,32.38
    c-0.002,0.002-0.004,0.003-0.006,0.005L300.11,247.615z M397.996,100.287l0.592-0.591c7.478-7.479,15.859-13.637,25.029-18.4
    v42.813l-9.068,9.068c-0.002,0.002-0.004,0.004-0.006,0.005l-35.046,35.049v-49.445L397.996,100.287z M170.428,491.997
    c-23.974-0.002-43.477-19.506-43.477-43.478V63.478c0-16.806-6.566-32.109-17.266-43.476h231.875
    c23.973,0,43.476,19.503,43.476,43.474V84.98c-0.191,0.189-0.389,0.372-0.578,0.562l-68.347,68.344l-0.594,0.593
    c-29.051,29.052-41.438,71.031-33.069,110.799l-24.143,24.142c-3.906,3.905-3.906,10.237,0,14.143
    c1.953,1.953,4.512,2.929,7.07,2.929c2.559,0,5.119-0.977,7.072-2.929l24.141-24.14c8.162,1.72,16.506,2.605,24.883,2.605
    c22.766-0.001,44.597-6.269,63.565-17.989v174.479H223.906c-5.521,0-10,4.478-10,10
    C213.907,472.493,194.403,491.997,170.428,491.997z M448.515,491.995H216.62c8.541-9.069,14.459-20.634,16.5-33.479H490.83
    C486.301,477.687,469.048,491.995,448.515,491.995z"/>
  <path d="M247.75,73.482h0.236c5.523,0,10-4.478,10-10c0-5.523-4.477-10-10-10h-0.236c-5.521,0-10,4.477-10,10
    C237.75,69.005,242.228,73.482,247.75,73.482z"/>
  <path d="M167.987,73.479h51.034c5.523,0,10-4.477,10-10c0-5.522-4.477-10-10-10h-51.034c-5.523,0-10,4.478-10,10
    C157.988,69.003,162.464,73.479,167.987,73.479z"/>
  <path d="M167.987,113.478h138.969c5.521,0,10-4.478,10-10c0-5.523-4.479-10-10-10H167.987c-5.523,0-10,4.477-10,10
    C157.988,109,162.464,113.478,167.987,113.478z"/>
  <path d="M167.987,153.475h105.846c5.522,0,10-4.477,10-10c0-5.522-4.478-10-10-10H167.987c-5.523,0-10,4.478-10,10
    C157.988,148.998,162.464,153.475,167.987,153.475z"/>
  <path d="M167.987,193.476h80.22c5.521,0,10-4.478,10-10c0-5.523-4.479-10-10-10h-80.22c-5.523,0-10,4.477-10,10
    C157.988,188.998,162.464,193.476,167.987,193.476z"/>
  <path d="M167.987,233.473h68.97c5.523,0,10-4.477,10-10c0-5.523-4.477-10-10-10h-68.97c-5.523,0-10,4.477-10,10
    C157.988,228.996,162.464,233.473,167.987,233.473z"/>
  <path d="M167.987,273.472h51.034c5.523,0,10-4.477,10-10c0-5.522-4.477-10-10-10h-51.034c-5.523,0-10,4.477-10,10
    S162.464,273.472,167.987,273.472z"/>
  <path d="M229.021,303.471c0-5.522-4.477-10-10-10h-51.034c-5.523,0-10,4.478-10,10c0,5.524,4.477,10,10,10h51.034
    C224.545,313.471,229.021,308.994,229.021,303.471z"/>
  <path d="M290.298,383.204h51.034c5.523,0,10-4.477,10-10c0-5.522-4.477-10-10-10h-51.034c-5.523,0-10,4.478-10,10
    C280.299,378.728,284.775,383.204,290.298,383.204z"/>
  <path d="M251.334,373.204c0,5.523,4.477,10,10,10h0.234c5.523,0,10-4.477,10-10c0-5.522-4.477-10-10-10h-0.234
    C255.81,363.204,251.334,367.682,251.334,373.204z"/>
</g>
</svg>
